<?xml version="1.0" encoding="utf-8"?>
<!-- Generator: Adobe Illustrator 24.0.2, SVG Export Plug-In . SVG Version: 6.00 Build 0)  -->
<svg version="1.1" id="Calque_1" xmlns="http://www.w3.org/2000/svg" xmlns:xlink="http://www.w3.org/1999/xlink" x="0px" y="0px"
	 viewBox="0 0 512 512" style="enable-background:new 0 0 512 512;" xml:space="preserve">
<path d="M256,8C119,8,8,119,8,256s111,248,248,248s248-111,248-248S393,8,256,8z M389.7,151.5c-11.5,0.4-19.4-6.5-19.8-16.9
	c-0.3-9.2,6.7-13.4,6.5-18.9c-0.2-6.6-10.2-6.8-12.9-6.7c-39.8,1.3-48.6,57-58.9,113.9c21.4,3.2,36.7-0.7,45.1-6.2
	c12-7.8-3.3-15.7-1.4-24.6c4-18.2,32.6-19,32,5.3c-0.4,17.9-25.9,41.8-77.6,35.7c-10.8,59.5-18.4,115-58.2,161.7
	c-29,34.5-58.4,39.8-71.6,40.3c-24.7,0.9-41-12.3-41.6-29.8c-0.6-17,14.5-26.3,24.3-26.6c21.9-0.8,30.1,25.7,14.9,34
	c-12.1,9.7,0.1,12.6,2.1,12.6c10.4-0.4,17.3-5.5,22.2-9c24-20,33.2-54.9,45.4-118.4c8.2-49.7,17-78,18.2-82
	c-16.9-12.8-27.1-28.6-49.9-34.7c-15.6-4.2-25.1-0.6-31.8,7.8c-7.9,10-5.3,23,2.4,30.7l12.6,14c15.5,17.9,24,31.9,20.8,50.6
	c-5.1,29.9-40.7,52.9-82.9,39.9c-36-11.1-42.7-36.6-38.4-50.6c7.5-24.2,42.4-11.7,34.6,13.6c-2.8,8.6-4.9,8.7-6.3,13.1
	c-4.6,14.8,41.9,28.4,51-1.4c4.5-14.5-5.3-21.7-22.3-39.9c-28.5-31.8-16-65.5,3-79.7c53-39.2,100.7,17.7,110.8,26
	c37.2-109,100.5-105.5,102.4-105.5c25.2-0.8,44.2,10.6,44.8,28.7c0.3,7.7-4.2,22.6-19.5,23.1L389.7,151.5z"/>
</svg>
